<svg width="25" height="25" viewBox="0 0 25 25" fill="none" xmlns="http://www.w3.org/2000/svg">
<path d="M12.5002 11.4583C13.3243 11.4583 14.1298 11.214 14.815 10.7561C15.5002 10.2983 16.0343 9.64754 16.3497 8.88618C16.665 8.12482 16.7475 7.28705 16.5868 6.47879C16.426 5.67054 16.0292 4.92811 15.4464 4.34539C14.8637 3.76267 14.1213 3.36583 13.313 3.20506C12.5048 3.04429 11.667 3.12681 10.9056 3.44217C10.1443 3.75754 9.49355 4.29159 9.03571 4.97679C8.57787 5.662 8.3335 6.46758 8.3335 7.29167C8.3335 8.39674 8.77248 9.45655 9.55388 10.2379C10.3353 11.0193 11.3951 11.4583 12.5002 11.4583Z" fill="white"/>
<path d="M18.7502 21.875C19.0264 21.875 19.2914 21.7652 19.4867 21.5699C19.6821 21.3745 19.7918 21.1096 19.7918 20.8333C19.7918 18.8994 19.0236 17.0448 17.6561 15.6773C16.2887 14.3099 14.434 13.5416 12.5002 13.5416C10.5663 13.5416 8.71163 14.3099 7.34418 15.6773C5.97672 17.0448 5.2085 18.8994 5.2085 20.8333C5.2085 21.1096 5.31824 21.3745 5.51359 21.5699C5.70894 21.7652 5.9739 21.875 6.25016 21.875H18.7502Z" fill="white"/>
</svg>
