<svg width="30" height="30" viewBox="0 0 30 30" fill="none" xmlns="http://www.w3.org/2000/svg">
<path d="M15.0002 13.75C15.9892 13.75 16.9558 13.4568 17.7781 12.9074C18.6003 12.3579 19.2412 11.5771 19.6196 10.6634C19.9981 9.74979 20.0971 8.74446 19.9042 7.77455C19.7112 6.80465 19.235 5.91373 18.5358 5.21447C17.8365 4.51521 16.9456 4.039 15.9757 3.84608C15.0058 3.65315 14.0005 3.75217 13.0868 4.1306C12.1732 4.50904 11.3923 5.14991 10.8429 5.97215C10.2935 6.7944 10.0002 7.7611 10.0002 8.75C10.0002 10.0761 10.527 11.3479 11.4647 12.2855C12.4024 13.2232 13.6742 13.75 15.0002 13.75Z" fill="white"/>
<path d="M22.5002 26.25C22.8318 26.25 23.1497 26.1183 23.3841 25.8839C23.6185 25.6495 23.7502 25.3315 23.7502 25C23.7502 22.6794 22.8284 20.4538 21.1874 18.8128C19.5465 17.1719 17.3209 16.25 15.0002 16.25C12.6796 16.25 10.454 17.1719 8.81306 18.8128C7.17212 20.4538 6.25024 22.6794 6.25024 25C6.25024 25.3315 6.38194 25.6495 6.61636 25.8839C6.85078 26.1183 7.16872 26.25 7.50024 26.25H22.5002Z" fill="white"/>
</svg>
